<?xml version="1.0" standalone="no"?>
<!DOCTYPE svg PUBLIC "-//W3C//DTD SVG 20010904//EN"
 "http://www.w3.org/TR/2001/REC-SVG-20010904/DTD/svg10.dtd">
<svg version="1.0" xmlns="http://www.w3.org/2000/svg"
 width="1101.000000pt" height="1101.000000pt" viewBox="0 0 1101.000000 1101.000000"
 preserveAspectRatio="xMidYMid meet">
<metadata>
Created by potrace 1.11, written by Peter Selinger 2001-2013
</metadata>
<g transform="translate(0.000000,1101.000000) scale(0.100000,-0.100000)"
fill="#000000" stroke="none">
<path d="M5436 10965 c-32 -19 -59 -35 -60 -35 -1 0 -56 -31 -122 -69 -104
-61 -301 -174 -359 -207 -61 -34 -912 -526 -925 -534 -17 -10 -109 -64 -155
-90 -16 -9 -72 -41 -123 -71 -52 -30 -112 -65 -135 -78 -23 -13 -51 -29 -62
-36 -11 -7 -24 -12 -29 -13 -5 0 -12 -4 -15 -9 -3 -5 -73 -47 -155 -93 -201
-115 -196 -112 -236 -136 -19 -12 -55 -33 -80 -47 -25 -13 -101 -57 -170 -97
-186 -108 -203 -118 -360 -208 -80 -46 -152 -88 -160 -93 -17 -10 -227 -132
-278 -161 -85 -48 -177 -101 -297 -170 -396 -229 -784 -453 -810 -469 -16 -10
-53 -30 -80 -44 -28 -15 -59 -33 -69 -41 -18 -13 -19 -79 -19 -2760 l0 -2747
24 -18 c13 -10 27 -19 31 -19 3 0 39 -19 80 -43 40 -24 93 -55 118 -69 78 -44
430 -248 543 -314 60 -35 111 -64 113 -64 3 0 30 -16 60 -35 30 -19 56 -35 58
-35 3 0 160 -89 246 -140 127 -75 256 -149 300 -173 30 -16 62 -36 71 -43 8
-8 18 -14 21 -14 4 0 73 -39 155 -86 81 -48 162 -94 178 -103 17 -9 62 -35
100 -58 103 -60 573 -332 625 -361 25 -14 97 -56 161 -93 64 -38 122 -69 128
-69 6 0 11 -4 11 -10 0 -5 4 -10 9 -10 5 0 38 -17 72 -38 35 -21 89 -52 119
-69 30 -16 80 -45 110 -63 30 -18 71 -42 90 -53 19 -10 224 -129 455 -262 231
-133 436 -252 455 -263 19 -11 91 -52 160 -92 69 -40 141 -81 160 -92 19 -11
53 -31 75 -43 l40 -23 98 59 c54 32 122 72 150 87 29 16 90 52 137 79 47 28
105 61 130 75 25 14 117 67 205 118 181 105 219 127 255 147 14 8 42 24 62 36
20 12 76 45 124 72 48 28 99 57 113 65 14 8 53 31 86 50 33 19 68 40 77 45 9
6 34 19 55 31 21 12 178 102 348 201 171 99 317 183 325 186 8 4 29 16 45 26
17 10 116 68 220 128 105 61 233 135 285 165 104 60 208 121 460 266 91 52
219 126 285 165 112 64 623 359 690 397 17 10 86 50 155 90 69 40 145 84 171
99 25 14 99 57 165 95 l119 69 0 2749 0 2749 -40 25 c-22 14 -49 29 -60 35
-11 5 -36 19 -55 30 -33 20 -106 62 -690 400 -140 81 -401 231 -580 335 -179
103 -392 226 -475 274 -82 47 -210 121 -282 163 -73 42 -135 77 -137 77 -3 0
-25 14 -49 30 -25 17 -48 30 -51 30 -4 0 -23 11 -44 23 -34 22 -320 188 -421
245 -25 14 -68 38 -95 55 -28 16 -64 38 -81 47 -58 33 -691 399 -815 470 -69
40 -144 83 -167 96 -23 13 -140 81 -260 151 -120 69 -243 140 -273 156 -30 16
-62 36 -71 43 -8 8 -19 14 -22 14 -4 0 -25 11 -47 25 -22 14 -43 25 -48 25 -4
0 -34 -16 -66 -35z"/>
</g>
</svg>
